<svg width="512" height="512" viewBox="0 0 512 512" fill="none" xmlns="http://www.w3.org/2000/svg">
  <rect width="512" height="512" rx="128" fill="#1e40af"/>
  
  <!-- Train body -->
  <rect x="96" y="160" width="320" height="200" rx="20" fill="white"/>
  
  <!-- Train windows -->
  <rect x="120" y="180" width="80" height="60" rx="10" fill="#e0e7ff"/>
  <rect x="220" y="180" width="80" height="60" rx="10" fill="#e0e7ff"/>
  <rect x="320" y="180" width="80" height="60" rx="10" fill="#e0e7ff"/>
  
  <!-- Train wheels -->
  <circle cx="160" cy="380" r="25" fill="#374151"/>
  <circle cx="352" cy="380" r="25" fill="#374151"/>
  
  <!-- Train details -->
  <rect x="96" y="140" width="320" height="20" rx="10" fill="#fbbf24"/>
  <rect x="120" y="260" width="80" height="40" rx="8" fill="#10b981"/>
  <rect x="220" y="260" width="80" height="40" rx="8" fill="#10b981"/>
  <rect x="320" y="260" width="80" height="40" rx="8" fill="#10b981"/>
  
  <!-- Train light -->
  <circle cx="416" y="200" r="15" fill="#fbbf24"/>
  
  <!-- Smoke -->
  <circle cx="96" y="120" r="8" fill="#9ca3af" opacity="0.6"/>
  <circle cx="110" y="110" r="6" fill="#9ca3af" opacity="0.4"/>
  <circle cx="120" y="100" r="4" fill="#9ca3af" opacity="0.2"/>
</svg>
